<svg width="208" height="32" viewBox="0 0 208 32" fill="none" xmlns="http://www.w3.org/2000/svg">
<rect width="208" height="32" rx="8" fill="white"/>
<rect width="32" height="32" rx="16" fill="#008678"/>
<path d="M22.9868 15.9823L15.393 15.9823L16.382 14.2517C18.148 11.1788 21.4327 9.27152 25.0001 9.27152L25.0001 8L16.3113 8C13.4857 8 10.872 9.62472 9.63582 12.2031L7.79917 16.0177L15.393 16.0177L14.404 17.7483C12.638 20.8212 9.35326 22.7285 5.78593 22.7285L5.78593 24L14.4747 24C17.3003 24 19.914 22.3753 21.1502 19.7969L22.9868 15.9823Z" fill="white"/>
<path d="M40.702 13.514C40.702 11.21 42.61 9.608 45.382 9.608C48.046 9.608 49.738 11.084 49.81 13.46H47.506C47.452 12.326 46.642 11.66 45.346 11.66C43.924 11.66 43.006 12.344 43.006 13.442C43.006 14.378 43.51 14.9 44.608 15.152L46.678 15.602C48.928 16.088 50.026 17.24 50.026 19.202C50.026 21.65 48.118 23.234 45.22 23.234C42.412 23.234 40.576 21.74 40.522 19.382H42.826C42.844 20.498 43.744 21.164 45.22 21.164C46.75 21.164 47.722 20.498 47.722 19.4C47.722 18.518 47.272 17.996 46.192 17.762L44.104 17.294C41.872 16.808 40.702 15.53 40.702 13.514ZM52.8843 12.326C52.1283 12.326 51.5343 11.732 51.5343 10.994C51.5343 10.256 52.1283 9.68 52.8843 9.68C53.6043 9.68 54.1983 10.256 54.1983 10.994C54.1983 11.732 53.6043 12.326 52.8843 12.326ZM51.7863 23V14.108H53.9823V23H51.7863ZM58.4472 23H56.2512V14.108H58.2672L58.4472 15.152C58.8972 14.414 59.7972 13.838 61.0752 13.838C62.4252 13.838 63.3612 14.504 63.8292 15.53C64.2792 14.504 65.3232 13.838 66.6732 13.838C68.8332 13.838 70.0212 15.134 70.0212 17.186V23H67.8432V17.762C67.8432 16.484 67.1592 15.818 66.1152 15.818C65.0532 15.818 64.2432 16.502 64.2432 17.96V23H62.0472V17.744C62.0472 16.502 61.3812 15.836 60.3372 15.836C59.2932 15.836 58.4472 16.52 58.4472 17.96V23ZM72.177 27.122V14.108H74.211L74.355 15.458C74.895 14.432 76.065 13.838 77.415 13.838C79.917 13.838 81.573 15.656 81.573 18.446C81.573 21.218 80.061 23.234 77.415 23.234C76.083 23.234 74.931 22.712 74.373 21.812V27.122H72.177ZM74.391 18.554C74.391 20.156 75.381 21.254 76.893 21.254C78.441 21.254 79.359 20.138 79.359 18.554C79.359 16.97 78.441 15.836 76.893 15.836C75.381 15.836 74.391 16.952 74.391 18.554ZM85.5355 23H83.3575V9.608H85.5355V23ZM91.8171 23.234C89.1711 23.234 87.3171 21.308 87.3171 18.554C87.3171 15.764 89.1351 13.838 91.7451 13.838C94.4091 13.838 96.1011 15.62 96.1011 18.392V19.058L89.4051 19.076C89.5671 20.642 90.3951 21.434 91.8531 21.434C93.0591 21.434 93.8511 20.966 94.1031 20.12H96.1371C95.7591 22.064 94.1391 23.234 91.8171 23.234ZM91.7631 15.638C90.4671 15.638 89.6751 16.34 89.4591 17.672H93.9231C93.9231 16.448 93.0771 15.638 91.7631 15.638ZM103.034 23V9.842H108.272C110.864 9.842 112.448 11.192 112.448 13.388C112.448 14.846 111.8 15.89 110.558 16.412C111.944 16.862 112.646 17.906 112.646 19.436C112.646 21.686 111.08 23 108.362 23H103.034ZM108.074 11.876H105.338V15.458H108.128C109.388 15.458 110.09 14.792 110.09 13.622C110.09 12.488 109.37 11.876 108.074 11.876ZM108.272 17.402H105.338V20.966H108.272C109.568 20.966 110.288 20.336 110.288 19.148C110.288 18.032 109.55 17.402 108.272 17.402ZM115.533 12.326C114.777 12.326 114.183 11.732 114.183 10.994C114.183 10.256 114.777 9.68 115.533 9.68C116.253 9.68 116.847 10.256 116.847 10.994C116.847 11.732 116.253 12.326 115.533 12.326ZM114.435 23V14.108H116.631V23H114.435ZM125.614 23H118.432V21.2L122.86 15.944H118.432V14.108H125.614V15.926L121.114 21.164H125.614V23Z" fill="#1E1E1E"/>
</svg>
